<?xml version="1.0" encoding="UTF-8" standalone="no"?>
<!-- Created with Inkscape (http://www.inkscape.org/) -->

<svg
   xmlns:dc="http://purl.org/dc/elements/1.1/"
   xmlns:cc="http://creativecommons.org/ns#"
   xmlns:rdf="http://www.w3.org/1999/02/22-rdf-syntax-ns#"
   xmlns:svg="http://www.w3.org/2000/svg"
   xmlns="http://www.w3.org/2000/svg"
   xmlns:sodipodi="http://sodipodi.sourceforge.net/DTD/sodipodi-0.dtd"
   xmlns:inkscape="http://www.inkscape.org/namespaces/inkscape"
   version="1.1"
   id="svg2"
   width="249.60001"
   height="106.88"
   viewBox="0 0 249.60001 106.88"
   sodipodi:docname="etmf-clinfile.svg"
   inkscape:version="0.92.4 (5da689c313, 2019-01-14)">
  <metadata
     id="metadata8">
    <rdf:RDF>
      <cc:Work
         rdf:about="">
        <dc:format>image/svg+xml</dc:format>
        <dc:type
           rdf:resource="http://purl.org/dc/dcmitype/StillImage" />
        <dc:title></dc:title>
      </cc:Work>
    </rdf:RDF>
  </metadata>
  <defs
     id="defs6" />
  <sodipodi:namedview
     pagecolor="#ffffff"
     bordercolor="#666666"
     borderopacity="1"
     objecttolerance="10"
     gridtolerance="10"
     guidetolerance="10"
     inkscape:pageopacity="0"
     inkscape:pageshadow="2"
     inkscape:window-width="1920"
     inkscape:window-height="1017"
     id="namedview4"
     showgrid="false"
     inkscape:zoom="2.8605769"
     inkscape:cx="147.31446"
     inkscape:cy="49.767211"
     inkscape:window-x="-8"
     inkscape:window-y="-8"
     inkscape:window-maximized="1"
     inkscape:current-layer="svg2" />
  <path
     style="fill:#a6a6a6;stroke:none;stroke-width:0.63999999;stroke-opacity:1;fill-opacity:1"
     d="m 28.090507,103.57916 c 0.14763,-0.44 0.67563,-0.80761 1.17333,-0.81692 2.39657,-0.0448 2.50648,-0.97646 0.56818,-4.816207 -1.84329,-3.65155 -1.86782,-3.80687 -0.6012,-3.80687 0.91493,0 1.66023,0.75879 2.42661,2.47056 l 1.1061,2.47056 1.05508,-2.47056 c 0.61312,-1.43567 1.49519,-2.47056 2.10574,-2.47056 1.28465,0 0.95023,1.29941 -1.68828,6.559997 -1.72929,3.44781 -1.98987,3.68 -4.12987,3.68 -1.54379,0 -2.19712,-0.2593 -2.01569,-0.8 z"
     id="path915"
     inkscape:connector-curvature="0" />
  <path
     style="fill:#a6a6a6;stroke:none;stroke-width:0.63999999;stroke-opacity:1;fill-opacity:1"
     d="m 3.6087363,96.699163 v -5.12 h 4.16 c 2.3466697,0 4.1600007,0.27897 4.1600007,0.64 0,0.352 -1.440001,0.64 -3.2000007,0.64 -2.98666,0 -3.2,0.10667 -3.2,1.6 0,1.46963 0.23467,1.6 2.88,1.6 1.584,0 2.8800007,0.288 2.8800007,0.64 0,0.352 -1.2960007,0.64 -2.8800007,0.64 -2.64533,0 -2.88,0.13036 -2.88,1.6 0,1.493327 0.21334,1.599997 3.2,1.599997 1.7599997,0 3.2000007,0.288 3.2000007,0.64 0,0.36102 -1.813331,0.64 -4.1600007,0.64 h -4.16 z"
     id="path913"
     inkscape:connector-curvature="0" />
  <path
     style="fill:#a6a6a6;stroke:none;stroke-width:0.63999999;stroke-opacity:1;fill-opacity:1"
     d="m 12.645527,100.68263 c -0.98148,-1.833917 0.29851,-3.343467 2.83502,-3.343467 1.21451,0 2.20819,-0.25719 2.20819,-0.57153 0,-0.87954 -1.49164,-1.25286 -3.48408,-0.87198 -1.35297,0.25864 -1.72977,0.12238 -1.5097,-0.54591 0.4306,-1.30763 5.21726,-1.52361 6.24778,-0.28192 0.45282,0.54562 0.96938,2.28788 1.14789,3.87169 l 0.32458,2.879647 h -3.58071 c -2.77503,0 -3.71758,-0.25572 -4.18897,-1.13653 z"
     id="path911"
     inkscape:connector-curvature="0" />
  <path
     style="fill:#ffffff;stroke:none;stroke-width:0.63999999;stroke-opacity:1;fill-opacity:1"
     d="m 16.676397,100.15069 c 1.4138,-0.542527 1.26535,-1.531527 -0.22989,-1.531527 -1.33582,0 -2.18096,0.84347 -1.5137,1.510727 0.50032,0.50032 0.49415,0.50025 1.74359,0.0208 z"
     id="path909"
     inkscape:connector-curvature="0" />
  <path
     style="fill:#a6a6a6;stroke:none;stroke-width:0.63999999;stroke-opacity:1;fill-opacity:1"
     d="m 21.315407,101.39249 c -0.99107,-0.99107 -0.28791,-1.579417 1.65333,-1.38338 2.58795,0.26135 3.31458,-0.952337 0.83216,-1.389947 -2.3758,-0.41881 -3.46515,-2.08254 -2.29038,-3.49804 1.04824,-1.26306 5.84831,-1.11905 6.27859,0.18837 0.20086,0.6103 -0.27388,0.79095 -1.68182,0.64 -2.5423,-0.27259 -2.89518,0.82871 -0.47309,1.47648 4.12561,1.10335 3.27095,4.393187 -1.14131,4.393187 -1.51294,0 -2.94281,-0.192 -3.17748,-0.42667 z"
     id="path907"
     inkscape:connector-curvature="0" />
  <path
     style="fill:#a6a6a6;stroke:none;stroke-width:0.63999999;stroke-opacity:1;fill-opacity:1"
     d="m 42.008747,96.699163 v -5.12 h 4.16 c 2.34666,0 4.16,0.27897 4.16,0.64 0,0.352 -1.44,0.64 -3.2,0.64 -2.98667,0 -3.2,0.10667 -3.2,1.6 0,1.46963 0.23466,1.6 2.88,1.6 1.584,0 2.88,0.288 2.88,0.64 0,0.352 -1.296,0.64 -2.88,0.64 -2.64534,0 -2.88,0.13036 -2.88,1.6 0,1.493327 0.21333,1.599997 3.2,1.599997 1.76,0 3.2,0.288 3.2,0.64 0,0.36102 -1.81334,0.64 -4.16,0.64 h -4.16 z"
     id="path905"
     inkscape:connector-curvature="0" />
  <path
     style="fill:#a6a6a6;stroke:none;stroke-width:0.63999999;stroke-opacity:1;fill-opacity:1"
     d="m 50.968747,96.379163 c 0,-5.01333 0.10039,-5.44 1.28,-5.44 1.1796,0 1.28,0.42667 1.28,5.44 0,5.013327 -0.1004,5.439997 -1.28,5.439997 -1.17961,0 -1.28,-0.42667 -1.28,-5.439997 z"
     id="path903"
     inkscape:connector-curvature="0" />
  <path
     style="fill:#a6a6a6;stroke:none;stroke-width:0.63999999;stroke-opacity:1;fill-opacity:1"
     d="m 55.165037,100.39675 c -2.14336,-3.060067 -0.36325,-6.257587 3.48371,-6.257587 1.84491,0 2.74476,0.36741 3.48371,1.4224 l 0.99629,1.4224 0.99629,-1.4224 c 0.73877,-1.05475 1.63884,-1.4224 3.48223,-1.4224 1.36726,0 2.66529,0.2902 2.88451,0.64491 0.45147,0.73048 2.23697,-0.76945 2.23697,-1.8792 0,-0.37714 0.432,-0.68571 0.96,-0.68571 0.528,0 0.96,0.432 0.96,0.96 0,0.53333 0.56889,0.96 1.28,0.96 0.704,0 1.28,0.288 1.28,0.64 0,0.352 -0.59339,0.64 -1.31864,0.64 -1.1324,0 -1.29058,0.33895 -1.12,2.4 0.15506,1.87345 0.44436,2.358737 1.31864,2.211937 0.68009,-0.114187 1.12,0.21596 1.12,0.84055 0,0.77495 -0.51294,0.97915 -2.08,0.82806 -1.9944,-0.19229 -2.08803,-0.32567 -2.27507,-3.240547 -0.19828,-3.09015 -0.5956,-3.59333 -1.84822,-2.34071 -0.50572,0.50572 -1.08395,0.49342 -2.08891,-0.0444 -1.06123,-0.56796 -1.60682,-0.56345 -2.30871,0.0191 -2.17215,1.80272 -0.2059,5.136937 2.25322,3.82086 1.69695,-0.90818 2.94126,-0.252 1.9004,1.002157 -0.4122,0.49666 -1.85954,0.90302 -3.21632,0.90302 -1.92512,0 -2.69712,-0.35138 -3.51525,-1.59999 -0.88722,-1.354077 -1.54094,-1.599997 -4.25312,-1.599997 -2.79423,0 -3.10138,0.12455 -2.39776,0.97237 0.57367,0.691217 1.42905,0.855677 2.95837,0.568767 2.20126,-0.412957 3.05227,0.5362 1.13902,1.27038 -2.30567,0.88477 -5.31247,0.3922 -6.31136,-1.03393 z"
     id="path901"
     inkscape:connector-curvature="0" />
  <path
     style="fill:#ffffff;stroke:none;stroke-width:0.63999999;stroke-opacity:1;fill-opacity:1"
     d="m 60.568747,96.767633 c 0,-1.10818 -2.15146,-1.3913 -3.13077,-0.41199 -0.88469,0.88469 -0.77681,0.98352 1.07362,0.98352 1.13143,0 2.05715,-0.25719 2.05715,-0.57153 z"
     id="path899"
     inkscape:connector-curvature="0" />
  <path
     style="fill:#a6a6a6;stroke:none;stroke-width:0.63999999;stroke-opacity:1;fill-opacity:1"
     d="m 78.488747,97.979163 v -3.84 h 2.56 c 2.8252,0 3.22674,0.55571 1.28,1.77147 -0.93271,0.58248 -1.28,1.49249 -1.28,3.35395 0,2.127907 -0.21379,2.554577 -1.28,2.554577 -1.13778,0 -1.28,-0.42667 -1.28,-3.839997 z"
     id="path897"
     inkscape:connector-curvature="0" />
  <path
     style="fill:#a6a6a6;stroke:none;stroke-width:0.63999999;stroke-opacity:1;fill-opacity:1"
     d="m 84.605027,100.39675 c -2.12496,-3.033807 -0.36263,-6.257587 3.42082,-6.257587 4.03922,0 6.13724,4.11875 3.3725,6.620807 -1.75124,1.58485 -5.57191,1.38058 -6.79332,-0.36322 z"
     id="path895"
     inkscape:connector-curvature="0" />
  <path
     style="fill:#ffffff;stroke:none;stroke-width:0.63999999;stroke-opacity:1;fill-opacity:1"
     d="m 89.643027,99.533443 c 0.55315,-0.55313 1.00572,-1.25257 1.00572,-1.55428 0,-0.66834 -1.83086,-2.56 -2.47772,-2.56 -0.82508,0 -2.00228,1.50509 -2.00228,2.56 0,1.05491 1.1772,2.559997 2.00228,2.559997 0.25646,0 0.91886,-0.45257 1.472,-1.005717 z"
     id="path893"
     inkscape:connector-curvature="0" />
  <path
     style="fill:#a6a6a6;stroke:none;stroke-width:0.63999999;stroke-opacity:1;fill-opacity:1"
     d="m 93.848747,97.979163 v -3.84 h 3.392 c 1.8656,0 3.737603,0.3456 4.159993,0.768 1.16915,1.16914 1.00962,6.911997 -0.192,6.911997 -0.68827,0 -0.95999,-0.70241 -0.95999,-2.481637 0,-1.42513 -0.408703,-2.82083 -0.960003,-3.27836 -1.49963,-1.24458 -2.88,0.32674 -2.88,3.27836 0,2.054967 -0.22007,2.481637 -1.28,2.481637 -1.13778,0 -1.28,-0.42667 -1.28,-3.839997 z"
     id="path891"
     inkscape:connector-curvature="0" />
  <path
     style="fill:#a6a6a6;stroke:none;stroke-width:0.63999999;stroke-opacity:1;fill-opacity:1"
     d="m 104.08874,97.979163 c 0,-3.41333 0.14222,-3.84 1.28,-3.84 1.13778,0 1.28,0.42667 1.28,3.84 0,3.413327 -0.14222,3.839997 -1.28,3.839997 -1.13778,0 -1.28,-0.42667 -1.28,-3.839997 z"
     id="path889"
     inkscape:connector-curvature="0" />
  <path
     style="fill:#a6a6a6;stroke:none;stroke-width:0.63999999;stroke-opacity:1;fill-opacity:1"
     d="m 108.28503,100.39675 c -2.13108,-3.042547 -0.36283,-6.257587 3.44164,-6.257587 1.34494,0 2.78259,0.40636 3.19478,0.90302 1.04087,1.25416 -0.20344,1.91034 -1.90039,1.00216 -0.99602,-0.53306 -1.56707,-0.52069 -2.25322,0.0488 -2.17215,1.80272 -0.2059,5.136947 2.25322,3.82087 1.69695,-0.90818 2.94126,-0.252 1.90039,1.002157 -1.22816,1.47985 -5.46855,1.14798 -6.63642,-0.51938 z"
     id="path887"
     inkscape:connector-curvature="0" />
  <path
     style="fill:#a6a6a6;stroke:none;stroke-width:0.63999999;stroke-opacity:1;fill-opacity:1"
     d="m 116.32553,100.68263 c -0.98148,-1.833917 0.29851,-3.343467 2.83502,-3.343467 1.21451,0 2.20819,-0.25719 2.20819,-0.57153 0,-0.87954 -1.49164,-1.25286 -3.48408,-0.87198 -1.35297,0.25864 -1.72977,0.12238 -1.5097,-0.54591 0.4306,-1.30763 5.21726,-1.52361 6.24778,-0.28192 0.45282,0.54562 0.96938,2.28788 1.14789,3.87169 l 0.32458,2.879647 h -3.58071 c -2.77504,0 -3.71758,-0.25572 -4.18897,-1.13653 z"
     id="path885"
     inkscape:connector-curvature="0" />
  <path
     style="fill:#ffffff;stroke:none;stroke-width:0.63999999;stroke-opacity:1;fill-opacity:1"
     d="m 120.3564,100.15069 c 1.4138,-0.542527 1.26535,-1.531527 -0.22988,-1.531527 -1.33583,0 -2.18097,0.84347 -1.51371,1.510727 0.50033,0.50032 0.49415,0.50025 1.74359,0.0208 z"
     id="path883"
     inkscape:connector-curvature="0" />
  <path
     style="fill:#a6a6a6;stroke:none;stroke-width:0.63999999;stroke-opacity:1;fill-opacity:1"
     d="m 125.20874,96.379163 c 0,-5.01333 0.1004,-5.44 1.28001,-5.44 1.1796,0 1.28,0.42667 1.28,5.44 0,5.013327 -0.1004,5.439997 -1.28,5.439997 -1.17961,0 -1.28001,-0.42667 -1.28001,-5.439997 z"
     id="path881"
     inkscape:connector-curvature="0" />
  <path
     style="fill:#a6a6a6;stroke:none;stroke-width:0.63999999;stroke-opacity:1;fill-opacity:1"
     d="m 135.44875,97.339163 v -4.48 h -1.92 c -1.056,0 -1.92,-0.288 -1.92,-0.64 0,-0.36978 2.02666,-0.64 4.8,-0.64 2.77333,0 4.8,0.27022 4.8,0.64 0,0.352 -0.72,0.64 -1.6,0.64 -1.55429,0 -1.6,0.128 -1.6,4.48 0,4.053327 -0.12191,4.479997 -1.28,4.479997 -1.1581,0 -1.28,-0.42667 -1.28,-4.479997 z"
     id="path879"
     inkscape:connector-curvature="0" />
  <path
     style="fill:#a6a6a6;stroke:none;stroke-width:0.63999999;stroke-opacity:1;fill-opacity:1"
     d="m 141.84875,97.979163 v -3.84 h 2.56 c 2.8252,0 3.22674,0.55571 1.28,1.77147 -0.93271,0.58248 -1.28,1.49249 -1.28,3.35395 0,2.127907 -0.21379,2.554577 -1.28,2.554577 -1.13778,0 -1.28,-0.42667 -1.28,-3.839997 z"
     id="path877"
     inkscape:connector-curvature="0" />
  <path
     style="fill:#a6a6a6;stroke:none;stroke-width:0.63999999;stroke-opacity:1;fill-opacity:1"
     d="m 147.60875,97.979163 c 0,-3.41333 0.14222,-3.84 1.28,-3.84 1.13778,0 1.28,0.42667 1.28,3.84 0,3.413327 -0.14222,3.839997 -1.28,3.839997 -1.13778,0 -1.28,-0.42667 -1.28,-3.839997 z"
     id="path875"
     inkscape:connector-curvature="0" />
  <path
     style="fill:#a6a6a6;stroke:none;stroke-width:0.63999999;stroke-opacity:1;fill-opacity:1"
     d="m 151.52553,100.68263 c -0.98148,-1.833917 0.29851,-3.343467 2.83502,-3.343467 1.21451,0 2.2082,-0.25719 2.2082,-0.57153 0,-0.87954 -1.49165,-1.25286 -3.48409,-0.87198 -1.35297,0.25864 -1.72977,0.12238 -1.5097,-0.54591 0.43061,-1.30763 5.21726,-1.52361 6.24778,-0.28192 0.45282,0.54562 0.96938,2.28788 1.14789,3.87169 l 0.32458,2.879647 h -3.58071 c -2.77503,0 -3.71758,-0.25572 -4.18897,-1.13653 z"
     id="path873"
     inkscape:connector-curvature="0" />
  <path
     style="fill:#ffffff;stroke:none;stroke-width:0.63999999;stroke-opacity:1;fill-opacity:1"
     d="m 155.5564,100.15069 c 1.4138,-0.542527 1.26535,-1.531527 -0.22988,-1.531527 -1.33583,0 -2.18097,0.84347 -1.51371,1.510727 0.50033,0.50032 0.49415,0.50025 1.74359,0.0208 z"
     id="path871"
     inkscape:connector-curvature="0" />
  <path
     style="fill:#a6a6a6;stroke:none;stroke-width:0.63999999;stroke-opacity:1;fill-opacity:1"
     d="m 160.40875,96.379163 c 0,-5.01333 0.10039,-5.44 1.28,-5.44 1.17961,0 1.28,0.42667 1.28,5.44 0,5.013327 -0.10039,5.439997 -1.28,5.439997 -1.17961,0 -1.28,-0.42667 -1.28,-5.439997 z"
     id="path869"
     inkscape:connector-curvature="0" />
  <path
     style="fill:#a6a6a6;stroke:none;stroke-width:0.63999999;stroke-opacity:1;fill-opacity:1"
     d="m 168.72875,96.699163 c 0,-6.13922 0.97755,-6.73246 3.69109,-2.24 0.95677,1.584 1.88778,2.88 2.06891,2.88 0.18112,0 1.11213,-1.296 2.0689,-2.88 2.71354,-4.49246 3.6911,-3.89922 3.6911,2.24 0,4.124437 -0.18667,5.119997 -0.96,5.119997 -0.71462,0 -0.96724,-0.77704 -0.98834,-3.039997 l -0.0283,-3.04 -1.41167,2.39373 c -0.77642,1.31655 -1.84367,2.393737 -2.37167,2.393737 -0.528,0 -1.59525,-1.077187 -2.37167,-2.393737 l -1.41172,-2.39373 -0.0284,3.04 c -0.0211,2.262957 -0.27372,3.039997 -0.98833,3.039997 -0.77334,0 -0.96,-0.99556 -0.96,-5.119997 z"
     id="path867"
     inkscape:connector-curvature="0" />
  <path
     style="fill:#a6a6a6;stroke:none;stroke-width:0.63999999;stroke-opacity:1;fill-opacity:1"
     d="m 182.24553,100.68263 c -0.98148,-1.833917 0.29851,-3.343467 2.83502,-3.343467 1.21451,0 2.2082,-0.25719 2.2082,-0.57153 0,-0.87954 -1.49164,-1.25286 -3.48409,-0.87198 -1.35297,0.25864 -1.72977,0.12238 -1.5097,-0.54591 0.43061,-1.30763 5.21726,-1.52361 6.24778,-0.28192 0.45282,0.54562 0.96938,2.28788 1.1479,3.87169 l 0.32457,2.879647 h -3.58071 c -2.77503,0 -3.71758,-0.25572 -4.18897,-1.13653 z"
     id="path865"
     inkscape:connector-curvature="0" />
  <path
     style="fill:#ffffff;stroke:none;stroke-width:0.63999999;stroke-opacity:1;fill-opacity:1"
     d="m 186.2764,100.15069 c 1.4138,-0.542527 1.26535,-1.531527 -0.22988,-1.531527 -1.33583,0 -2.18097,0.84347 -1.51371,1.510727 0.50033,0.50032 0.49415,0.50025 1.74359,0.0208 z"
     id="path863"
     inkscape:connector-curvature="0" />
  <path
     style="fill:#a6a6a6;stroke:none;stroke-width:0.63999999;stroke-opacity:1;fill-opacity:1"
     d="m 190.91542,101.39249 c -0.99108,-0.99107 -0.28791,-1.579417 1.65333,-1.38338 2.58794,0.26135 3.31457,-0.952337 0.83215,-1.389947 -2.3758,-0.41881 -3.46514,-2.08254 -2.29038,-3.49804 1.04824,-1.26306 5.84831,-1.11905 6.2786,0.18837 0.20085,0.6103 -0.27388,0.79095 -1.68182,0.64 -2.5423,-0.27259 -2.89519,0.82871 -0.4731,1.47648 4.12561,1.10335 3.27095,4.393187 -1.14131,4.393187 -1.51294,0 -2.94281,-0.192 -3.17747,-0.42667 z"
     id="path861"
     inkscape:connector-curvature="0" />
  <path
     style="fill:#a6a6a6;stroke:none;stroke-width:0.63999999;stroke-opacity:1;fill-opacity:1"
     d="m 199.87542,101.39249 c -0.23467,-0.23466 -0.42667,-1.650657 -0.42667,-3.146657 0,-1.55023 -0.34405,-2.88056 -0.8,-3.09334 -0.64,-0.29866 -0.64,-0.448 0,-0.74666 0.44,-0.20534 0.8,-0.78134 0.8,-1.28 0,-0.49867 0.432,-0.90667 0.96,-0.90667 0.528,0 0.96,0.432 0.96,0.96 0,0.53333 0.56889,0.96 1.28,0.96 0.704,0 1.28,0.288 1.28,0.64 0,0.352 -0.59338,0.64 -1.31864,0.64 -1.1324,0 -1.29058,0.33895 -1.12,2.4 0.15506,1.87345 0.44436,2.358737 1.31864,2.211937 0.66423,-0.111517 1.12,0.21402 1.12,0.8 0,1.00477 -3.1708,1.44393 -4.05333,0.56139 z"
     id="path859"
     inkscape:connector-curvature="0" />
  <path
     style="fill:#a6a6a6;stroke:none;stroke-width:0.63999999;stroke-opacity:1;fill-opacity:1"
     d="m 205.56504,100.39675 c -2.14336,-3.060067 -0.36324,-6.257587 3.48371,-6.257587 1.84491,0 2.74476,0.36741 3.48371,1.4224 1.72478,2.46247 1.2806,3.0576 -2.28207,3.0576 -2.86008,0 -3.17541,0.12406 -2.47138,0.97237 0.57367,0.691227 1.42905,0.855677 2.95837,0.568777 2.20126,-0.412957 3.05228,0.53619 1.13902,1.27038 -2.30567,0.88476 -5.31246,0.39219 -6.31136,-1.03394 z"
     id="path857"
     inkscape:connector-curvature="0" />
  <path
     style="fill:#ffffff;stroke:none;stroke-width:0.63999999;stroke-opacity:1;fill-opacity:1"
     d="m 210.96875,96.767633 c 0,-1.10818 -2.15146,-1.3913 -3.13077,-0.41199 -0.88469,0.88469 -0.77681,0.98352 1.07362,0.98352 1.13143,0 2.05715,-0.25719 2.05715,-0.57153 z"
     id="path855"
     inkscape:connector-curvature="0" />
  <path
     style="fill:#a6a6a6;stroke:none;stroke-width:0.63999999;stroke-opacity:1;fill-opacity:1"
     d="m 214.16875,97.979163 v -3.84 h 2.56 c 2.8252,0 3.22674,0.55571 1.28,1.77147 -0.93271,0.58248 -1.28,1.49249 -1.28,3.35395 0,2.127907 -0.21379,2.554577 -1.28,2.554577 -1.13778,0 -1.28,-0.42667 -1.28,-3.839997 z"
     id="path853"
     inkscape:connector-curvature="0" />
  <path
     style="fill:#a6a6a6;stroke:none;stroke-width:0.63999999;stroke-opacity:1;fill-opacity:1"
     d="m 224.40875,96.699163 v -5.12 h 4.16 c 2.34667,0 4.16,0.27897 4.16,0.64 0,0.352 -1.44,0.64 -3.2,0.64 -3.12889,0 -3.2,0.0427 -3.2,1.92 0,1.84889 0.10667,1.92 2.88,1.92 1.584,0 2.88,0.288 2.88,0.64 0,0.352 -1.296,0.64 -2.88,0.64 -2.77333,0 -2.88,0.0711 -2.88,1.92 0,1.279997 -0.32,1.919997 -0.96,1.919997 -0.77333,0 -0.96,-0.99556 -0.96,-5.119997 z"
     id="path851"
     inkscape:connector-curvature="0" />
  <path
     style="fill:#a6a6a6;stroke:none;stroke-width:0.63999999;stroke-opacity:1;fill-opacity:1"
     d="m 233.36875,97.979163 c 0,-3.41333 0.14222,-3.84 1.28,-3.84 1.13778,0 1.28,0.42667 1.28,3.84 0,3.413327 -0.14222,3.839997 -1.28,3.839997 -1.13778,0 -1.28,-0.42667 -1.28,-3.839997 z"
     id="path849"
     inkscape:connector-curvature="0" />
  <path
     style="fill:#a6a6a6;stroke:none;stroke-width:0.63999999;stroke-opacity:1;fill-opacity:1"
     d="m 237.20875,96.379163 c 0,-5.01333 0.10039,-5.44 1.28,-5.44 1.17961,0 1.28,0.42667 1.28,5.44 0,5.013327 -0.10039,5.439997 -1.28,5.439997 -1.17961,0 -1.28,-0.42667 -1.28,-5.439997 z"
     id="path847"
     inkscape:connector-curvature="0" />
  <path
     style="fill:#a6a6a6;stroke:none;stroke-width:0.63999999;stroke-opacity:1;fill-opacity:1"
     d="m 241.40504,100.39675 c -2.14336,-3.060067 -0.36324,-6.257587 3.48371,-6.257587 1.84492,0 2.74476,0.36741 3.48371,1.4224 1.72478,2.46247 1.2806,3.0576 -2.28207,3.0576 -2.86008,0 -3.17541,0.12406 -2.47137,0.97237 0.57366,0.691227 1.42904,0.855677 2.95836,0.568777 2.20126,-0.412957 3.05228,0.53619 1.13902,1.27038 -2.30567,0.88476 -5.31246,0.39219 -6.31136,-1.03394 z"
     id="path845"
     inkscape:connector-curvature="0" />
  <path
     style="fill:#ffffff;stroke:none;stroke-width:0.63999999;stroke-opacity:1;fill-opacity:1"
     d="m 246.80875,96.767633 c 0,-1.10818 -2.15146,-1.3913 -3.13077,-0.41199 -0.88469,0.88469 -0.77681,0.98352 1.07362,0.98352 1.13143,0 2.05715,-0.25719 2.05715,-0.57153 z"
     id="path843"
     inkscape:connector-curvature="0" />
  <path
     style="fill:#a6a6a6;stroke:none;stroke-width:0.63999999;stroke-opacity:1;fill-opacity:1"
     d="m 104.08874,91.899163 c 0,-0.53333 0.56889,-0.96 1.28,-0.96 0.71111,0 1.28,0.42667 1.28,0.96 0,0.53333 -0.56889,0.96 -1.28,0.96 -0.71111,0 -1.28,-0.42667 -1.28,-0.96 z"
     id="path841"
     inkscape:connector-curvature="0" />
  <path
     style="fill:#a6a6a6;stroke:none;stroke-width:0.63999999;stroke-opacity:1;fill-opacity:1"
     d="m 147.60875,91.899163 c 0,-0.53333 0.56889,-0.96 1.28,-0.96 0.71111,0 1.28,0.42667 1.28,0.96 0,0.53333 -0.56889,0.96 -1.28,0.96 -0.71111,0 -1.28,-0.42667 -1.28,-0.96 z"
     id="path839"
     inkscape:connector-curvature="0" />
  <path
     style="fill:#a6a6a6;stroke:none;stroke-width:0.63999999;stroke-opacity:1;fill-opacity:1"
     d="m 233.36875,91.899163 c 0,-0.53333 0.56889,-0.96 1.28,-0.96 0.71111,0 1.28,0.42667 1.28,0.96 0,0.53333 -0.56889,0.96 -1.28,0.96 -0.71111,0 -1.28,-0.42667 -1.28,-0.96 z"
     id="path837"
     inkscape:connector-curvature="0" />
  <path
     style="fill:#e02833;fill-opacity:1;stroke:#e02833;stroke-width:0.63999999;stroke-opacity:1"
     d="m 45.081038,75.850273 c -14.16854,-2.54471 -25.16009,-12.83962 -28.77543,-26.95167 -1.60115,-6.24992 -1.00248,-16.24291 1.31734,-21.98902 3.63536,-9.00463 9.86326,-15.79043 18.01642,-19.6303607 18.31483,-8.6258 39.97153,-0.75959 48.2035,17.5086207 10.5736,23.46472 -5.28405,50.04548 -30.6637,51.39882 -2.64,0.14077 -6.28416,-0.0106 -8.09813,-0.33639 z"
     id="path835"
     inkscape:connector-curvature="0" />
  <path
     style="fill:#ffffff;fill-opacity:1;stroke:#e02833;stroke-width:0.63999999;stroke-opacity:1"
     d="m 57.091198,72.970713 c 15.35629,-2.78392 27.15755,-16.94652 27.15755,-32.59155 0,-19.87079 -18.44223,-35.9114207 -37.56716,-32.6750607 -12.79969,2.16598 -23.43879,11.8738907 -26.78308,24.4388707 -1.17151,4.40152 -1.17151,12.07085 0,16.47237 3.12953,11.75811 12.72763,21.19406 24.443,24.03006 4.65671,1.12728 7.87327,1.20935 12.74969,0.32531 z"
     id="path833"
     inkscape:connector-curvature="0" />
  <path
     style="fill:#e02833;stroke:none;stroke-width:0.63999999;stroke-opacity:1;fill-opacity:1"
     d="m 36.248737,55.419163 v -4.8 h 15.36001 15.36 v 4.8 4.8 h -15.36 -15.36001 z"
     id="path831"
     inkscape:connector-curvature="0" />
  <path
     style="fill:#e02833;stroke:none;stroke-width:0.63999999;stroke-opacity:1;fill-opacity:1"
     d="m 36.248737,40.059163 v -4.8 h 11.20001 11.2 v 4.8 4.8 h -11.2 -11.20001 z"
     id="path829"
     inkscape:connector-curvature="0" />
  <path
     style="fill:#e02833;stroke:none;stroke-width:0.63999999;stroke-opacity:1;fill-opacity:1"
     d="m 36.248737,25.019163 v -4.48 h 15.36001 15.36 v 4.48 4.48 h -15.36 -15.36001 z"
     id="path827"
     inkscape:connector-curvature="0" />
  <path
     style="fill:#e02833;stroke:none;stroke-width:0.63999999;stroke-opacity:1;fill-opacity:1"
     d="m 106.00874,41.979163 v -18.88 h -7.359993 -7.36 v -3.52 -3.52 h 19.199993 19.20001 v 3.52 3.52 h -7.36001 -7.36 v 18.88 18.88 h -4.48 -4.48 z"
     id="path825"
     inkscape:connector-curvature="0" />
  <path
     style="fill:#e02833;stroke:none;stroke-width:0.63999999;stroke-opacity:1;fill-opacity:1"
     d="m 135.44875,38.459163 v -22.4 h 3.75756 3.75756 l 8.56244,14.38246 c 4.70934,7.91036 8.70644,14.37961 8.88244,14.37612 0.176,-0.004 4.064,-6.46821 8.64,-14.36603 l 8.32,-14.35968 3.68,-0.0164 3.68,-0.0164 v 22.4 22.4 h -4.14752 -4.14752 l -0.17248,-13.77354 -0.17248,-13.77355 -6.71274,11.21355 -6.71274,11.21355 h -2.36473 -2.36472 l -7.08254,-11.65088 -7.08253,-11.65087 v 14.21087 14.21088 h -4.16 -4.16 z"
     id="path823"
     inkscape:connector-curvature="0" />
  <path
     style="fill:#e02833;stroke:none;stroke-width:0.63999999;stroke-opacity:1;fill-opacity:1"
     d="m 196.88875,38.459163 v -22.4 h 16.64 16.64 v 3.52 3.52 h -12.16 -12.16 v 6.72 6.72 h 10.88 10.88 v 3.84 3.84 h -10.88 -10.88 v 8.32 8.32 h -4.48 -4.48 z"
     id="path819"
     inkscape:connector-curvature="0" />
</svg>
